<?xml version="1.0" encoding="UTF-8"?>
<svg id="Layer_1" data-name="Layer 1" xmlns="http://www.w3.org/2000/svg" viewBox="0 0 1260.96 1426.01">
  <defs>
    <style>
      .cls-1 {
        fill: #4b7a3c;
      }
    </style>
  </defs>
  <path class="cls-1" d="M735.14,518.39c92.91,43.65,95.91,190.81,71.88,275.41-8.48,29.86-23.61,57.81-46.98,78.24-40.39,35.31-99.7,44.66-149.34,24.44-22.4-9.13-38.14-25.94-57.97-40.59l-.97,184.87c-24.94,7.33-45.21,8.08-68.13-1.16l-.36-235.09c-7.3-1.58-23.27-3.26-27.93-9.32l-153.9-200.17-1.48,202.89c-23.61,8.03-46.52,8.94-68.33-1.31V243.57c22.17-10.21,43.95-9.4,68.64-.97l.25,332.99,143.06-156.7c21.25-9.16,47.11-6.12,70.24-2.65,4.13,9.86,2.88,17.5-1.84,26.27l-136.13,136.08,107.27,140.29.54-201.56c19-9.47,39.39-8.14,59.36-1.5l2.22,51.63,29.2-24.85c44.47-37.84,106.58-49.61,160.68-24.19ZM685.19,841.04c70.62-30.36,73.24-158.19,45.29-226.94-18.17-44.69-65.98-61.58-108.5-40.15-26.88,13.55-52.28,37.63-69.37,62.74l-.3,141.08c33.48,41.56,79.62,86.16,132.87,63.26Z"/>
  <path class="cls-1" d="M730.36,436.88c15.42-80.85,177.35-209.69,242.58-258.35,5.6-4.18,8.34-12.66,5.84-18-2.04-4.36-13.08-8.42-17.94-4.94-62.46,44.67-117.84,92.41-174.59,149.75-34.41-59.72-29.02-131.87,8.05-187.7,36.35-54.74,97.7-81.38,166.35-80.66,77.75.82,151.22-20,228.9-36.99-.52,146.39-12.83,293.39-150.16,373.77-67.63,39.59-149.7,35.74-212.38-16.09-23.43,23.08-43.57,48.9-59.12,79.03-9.32,3.46-22.2,3.12-37.53.17Z"/>
  <rect class="cls-1" x="864.49" y="450.26" width="93.87" height="409.62"/>
  <path class="cls-1" d="M1093.81,1422.46l-18.66-44.92c-6.12-14.73-23.05-24.91-38.92-17.69l-1.27,61.8c-.12,5.84-21.66,5.52-21.66-.25l.04-148.7c38.29-2.5,88.03-8.87,93.94,34.16,2.42,17.62-7.05,34.61-23.38,43.23,14.97,21.4,25.31,46.05,33.13,71.87-3.42,4.56-21.17,5.44-23.23.49ZM1062.63,1337.87c9.37-.33,19.99-11.76,20.95-19.89.95-8-3.82-22.57-12.08-24.55-12.6-3.02-22.67-3.24-35.67-3.35l-.11,48.74,26.9-.95Z"/>
  <path class="cls-1" d="M201.86,1342.58l57.65,78.74c-9.06,5.89-23.01,6.54-27.63.25l-52.48-71.35-1.21,71.22c-.09,5.08-16.71,5.11-21.79,1.78l-.15-150.48,21.74-1.34,1.42,67.23,45.61-58.23c7.24-9.25,20.66-15.77,31.52-4.12l-54.67,66.3Z"/>
  <path class="cls-1" d="M709.26,1342.58l57.65,78.73c-9.06,5.9-23.01,6.54-27.64.25l-52.49-71.34-1.45,71.39c-.1,4.91-16.45,4.94-21.54,1.6l-.15-150.48,21.74-1.33,1.42,67.22,45.61-58.23c7.24-9.25,20.66-15.77,31.53-4.12l-54.67,66.3Z"/>
  <path class="cls-1" d="M412.72,1353.58l-53.46,1.04.27,51.31,59,.96c4.71.08,5.2,14.43,2.24,18.35l-83.82-.48-.21-152.77,79.79-.99c4.61-.06,7.58,14.49,3.55,18.04l-60.63,1.68.07,44.61,48.22.39c4.35.04,6.39,10.8,4.98,17.88Z"/>
  <path class="cls-1" d="M920.11,1353.58l-53.46,1.04.29,51.31,59.12.96c4.59.07,5.08,14.42,2.09,18.34l-83.82-.48-.21-152.77,79.79-.99c4.61-.06,7.58,14.49,3.55,18.04l-60.63,1.68.07,44.61,48.22.39c4.35.04,6.39,10.8,4.98,17.88Z"/>
  <rect class="cls-1" y="1120.89" width="1260.96" height="3.76"/>
  <path class="cls-1" d="M584.2,1405.55c5.31.03,8.09,18.63,3.53,18.87-25.44,1.32-49.86,1.09-77.87-.14l-.32-150.74c4.24-3.61,21.92-3.8,21.96,1.43l.87,130.3,51.83.3Z"/>
</svg>