<?xml version="1.0" encoding="UTF-8"?>
<svg id="Layer_1" data-name="Layer 1" xmlns="http://www.w3.org/2000/svg" viewBox="0 0 1202.69 1313.79">
  <defs>
    <style>
      .cls-1 {
        fill: #4b7a3c;
      }
    </style>
  </defs>
  <path class="cls-1" d="M632.16,650.86c116.65,54.81,120.42,239.57,90.25,345.79-10.65,37.49-29.65,72.59-58.99,98.24-50.71,44.33-125.18,56.07-187.5,30.68-28.13-11.46-47.89-32.57-72.79-50.97l-1.22,232.11c-31.31,9.2-56.76,10.14-85.53-1.46l-.45-295.17c-9.17-1.98-29.22-4.1-35.06-11.7l-193.23-251.32-1.86,254.74c-29.64,10.08-58.41,11.23-85.79-1.64V305.81c27.83-12.82,55.18-11.8,86.18-1.22l.31,418.08,179.61-196.75c26.68-11.49,59.15-7.69,88.19-3.33,5.18,12.38,3.61,21.97-2.31,32.99l-170.92,170.85,134.68,176.14.68-253.07c23.86-11.89,49.45-10.23,74.53-1.89l2.79,64.82,36.66-31.2c55.83-47.51,133.82-62.28,201.74-30.37ZM569.46,1055.95c88.66-38.12,91.96-198.62,56.87-284.93-22.81-56.11-82.84-77.32-136.22-50.41-33.75,17.01-65.64,47.25-87.1,78.77l-.37,177.13c42.03,52.18,99.96,108.17,166.83,79.43Z"/>
  <path class="cls-1" d="M626.17,548.52c19.36-101.52,222.67-263.27,304.57-324.37,7.03-5.24,10.47-15.89,7.33-22.59-2.57-5.47-16.42-10.57-22.52-6.2-78.42,56.09-147.96,116.02-219.2,188.02-43.2-74.98-36.44-165.57,10.11-235.66,45.64-68.73,122.66-102.17,208.86-101.27,97.62,1.03,189.87-25.12,287.39-46.44-.65,183.79-16.11,368.37-188.53,469.28-84.92,49.7-187.95,44.87-266.65-20.2-29.41,28.98-54.7,61.39-74.23,99.22-11.7,4.35-27.87,3.92-47.12.22Z"/>
  <rect class="cls-1" x="794.57" y="565.32" width="117.86" height="514.29"/>
</svg>